# xmcd
#
# Track frame offsets:
#	182
#	14445
#	23142
#	35082
#	48802
#	62970
#	74300
#	87067
#	99427
#	112530
#	125315
#	135560
#	148577
#	162332
#	173857
#	189395
#	202947
#	220157
#	241985
#	259340
#	272435
#	287242
#	302807
#	313567
#
# Disc length: 4368 seconds
# Revision: 0
# Processed by: cddbd v1.5.2PL0 Copyright (c) Steve Scherf et al.
# Submitted via: dBpowerAMP V12.0
#
DISCID=4f110e18
DTITLE=Duane Eddy - 2Gether On 1, Vol. 3
DYEAR=1995
DGENRE=Country
TTITLE0=High Noon (Do Not Forsake Me)
TTITLE1=Born to Be With You
TTITLE2=Secret Love
TTITLE3=Unchained Melody
TTITLE4=When I Fall in Love
TTITLE5=Mirriam
TTITLE6=Moon River
TTITLE7=Bali Ha'I
TTITLE8=Hi-Lilli, Hi-Lo
TTITLE9=Angel on My Shoulder
TTITLE10=Memories of Madrid
TTITLE11=Love Me Tender
TTITLE12=I'm So Lonesome I Could Cry
TTITLE13=Long Lonely Days of Winter
TTITLE14=Along Came Linda
TTITLE15=Someday the Rainbow
TTITLE16=Gunsmoke
TTITLE17=A Home in the Meadow
TTITLE18=Danny Boy
TTITLE19=Shenandoah
TTITLE20=Summer Kiss
TTITLE21=My Destiny
TTITLE22=Cryin' Happy Tears
TTITLE23=Annie Laurie
EXTD=
EXTT0=
EXTT1=
EXTT2=
EXTT3=
EXTT4=
EXTT5=
EXTT6=
EXTT7=
EXTT8=
EXTT9=
EXTT10=
EXTT11=
EXTT12=
EXTT13=
EXTT14=
EXTT15=
EXTT16=
EXTT17=
EXTT18=
EXTT19=
EXTT20=
EXTT21=
EXTT22=
EXTT23=
PLAYORDER=
